<?xml version="1.0" standalone="no"?><!DOCTYPE svg PUBLIC "-//W3C//DTD SVG 1.1//EN" "http://www.w3.org/Graphics/SVG/1.1/DTD/svg11.dtd"><svg t="1620957809128" class="icon" viewBox="0 0 1024 1024" version="1.1" xmlns="http://www.w3.org/2000/svg" p-id="1988" xmlns:xlink="http://www.w3.org/1999/xlink" width="200" height="200"><defs><style type="text/css"></style></defs><path d="M512 1024c-56.096-89.344-97.184-137.728-123.296-145.184C201.216 825.248 64 652.672 64 448 64 200.576 264.576 0 512 0s448 200.576 448 448c0 203.168-135.232 374.72-320.608 429.632-26.88 7.968-69.376 56.768-127.392 146.368z m32.32-950.88a60.704 60.704 0 0 0-64.64 0L190.624 254.848a30.368 30.368 0 0 0 18.464 55.968L512 288l302.912 22.816a30.368 30.368 0 0 0 18.432-56L544.32 73.152zM208 352a16 16 0 1 0 0 32h96a16 16 0 1 0 0-32h-96z m0 64a16 16 0 0 0-16 16v224a16 16 0 0 0 16 16h96a16 16 0 0 0 16-16v-224a16 16 0 0 0-16-16h-96z m170.656 0a16 16 0 0 0-16 16v224a16 16 0 0 0 16 16h96a16 16 0 0 0 16-16v-224a16 16 0 0 0-16-16h-96z m170.688 0a16 16 0 0 0-16 16v224a16 16 0 0 0 16 16h96a16 16 0 0 0 16-16v-224a16 16 0 0 0-16-16h-96z m170.656 0a16 16 0 0 0-16 16v224a16 16 0 0 0 16 16h96a16 16 0 0 0 16-16v-224a16 16 0 0 0-16-16h-96zM378.656 352a16 16 0 0 0 0 32h96a16 16 0 1 0 0-32h-96z m170.688 0a16 16 0 1 0 0 32h96a16 16 0 0 0 0-32h-96z m170.656 0a16 16 0 1 0 0 32h96a16 16 0 1 0 0-32h-96z m-512 352a16 16 0 1 0 0 32h608a16 16 0 1 0 0-32h-608z" p-id="1989" fill="#2979ff"></path></svg>